<svg width="65" height="66" viewBox="0 0 65 66" fill="none" xmlns="http://www.w3.org/2000/svg">
<g filter="url(#filter0_d_301_598)">
<rect width="65" height="65.3714" fill="#303383"/>
<rect x="3.45745" y="3.45745" width="58.0851" height="58.4565" stroke="white" stroke-width="6.91489"/>
<path fill-rule="evenodd" clip-rule="evenodd" d="M28.1667 10.8952C26.8667 10.8952 26 11.7669 26 13.0743V23.0979L12.35 9.3699C11.4833 8.49828 10.1833 8.49828 9.31667 9.3699C8.45001 10.2415 8.45001 11.5489 9.31667 12.4206L22.9667 26.1486H13C11.7 26.1486 10.8333 27.0202 10.8333 28.3276C10.8333 29.635 11.7 30.5067 13 30.5067H28.1667C29.4667 30.5067 30.3333 29.4171 30.3333 28.3276V13.0743C30.3333 11.7669 29.25 10.8952 28.1667 10.8952ZM55.6833 52.9509L42.0333 39.2229H52C53.3 39.2229 54.1667 38.3512 54.1667 37.0438C54.1667 35.7364 53.3 34.8648 52 34.8648H36.8333C35.5333 34.8648 34.6667 35.9543 34.6667 37.0438V52.2971C34.6667 53.6046 35.5333 54.4762 36.8333 54.4762C38.1333 54.4762 39 53.6046 39 52.2971V42.2735L52.65 56.0015C53.5167 56.8731 54.8167 56.8731 55.6833 56.0015C56.55 55.1299 56.55 53.8225 55.6833 52.9509Z" fill="white"/>
</g>
<defs>
<filter id="filter0_d_301_598" x="0" y="0" width="65" height="65.3715" filterUnits="userSpaceOnUse" color-interpolation-filters="sRGB">
<feFlood flood-opacity="0" result="BackgroundImageFix"/>
<feColorMatrix in="SourceAlpha" type="matrix" values="0 0 0 0 0 0 0 0 0 0 0 0 0 0 0 0 0 0 127 0" result="hardAlpha"/>
<feOffset/>
<feColorMatrix type="matrix" values="0 0 0 0 0.180392 0 0 0 0 0.615686 0 0 0 0 1 0 0 0 1 0"/>
<feBlend mode="normal" in2="BackgroundImageFix" result="effect1_dropShadow_301_598"/>
<feBlend mode="normal" in="SourceGraphic" in2="effect1_dropShadow_301_598" result="shape"/>
</filter>
</defs>
</svg>
