<svg width="65" height="67" viewBox="0 0 65 67" fill="none" xmlns="http://www.w3.org/2000/svg">
<g filter="url(#filter0_d_299_590)">
<rect y="0.977173" width="65" height="65.3714" fill="#303383"/>
<rect x="3.45745" y="4.43462" width="58.0851" height="58.4565" stroke="white" stroke-width="6.91489"/>
<path fill-rule="evenodd" clip-rule="evenodd" d="M45.5 19.0633V14.0515C45.5 10.3471 42.6833 7.51434 39 7.51434H26C22.3167 7.51434 19.5 10.3471 19.5 14.0515V19.0633C15.6 22.5498 13 27.7795 13 33.6629C13 39.5463 15.6 44.7761 19.5 48.2625V53.2743C19.5 56.9787 22.3167 59.8115 26 59.8115H39C42.6833 59.8115 45.5 56.9787 45.5 53.2743V48.2625C49.4 44.7761 52 39.5463 52 33.6629C52 27.7795 49.4 22.5498 45.5 19.0633ZM23.8333 14.0515C23.8333 12.7441 24.7 11.8724 26 11.8724H39C40.3 11.8724 41.1667 12.7441 41.1667 14.0515V16.0126C38.5667 14.7052 35.5333 14.0515 32.5 14.0515C29.4667 14.0515 26.4333 14.7052 23.8333 16.0126V14.0515ZM41.1667 53.2743C41.1667 54.5818 40.3 55.4534 39 55.4534H26C24.7 55.4534 23.8333 54.5818 23.8333 53.2743V51.3132C26.4333 52.6206 29.4667 53.2743 32.5 53.2743C35.5333 53.2743 38.5667 52.6206 41.1667 51.3132V53.2743ZM32.5 48.9162C24.05 48.9162 17.3333 42.1612 17.3333 33.6629C17.3333 25.1646 24.05 18.4096 32.5 18.4096C40.95 18.4096 47.6667 25.1646 47.6667 33.6629C47.6667 42.1612 40.95 48.9162 32.5 48.9162ZM34.6667 32.7913V24.9467C34.6667 23.6393 33.8 22.7677 32.5 22.7677C31.2 22.7677 30.3333 23.6393 30.3333 24.9467V33.6629C30.3333 34.3166 30.55 34.7524 30.9833 35.1882L35.3167 39.5463C35.75 39.9822 36.4 40.2001 36.8333 40.2001C37.2667 40.2001 37.9167 39.9822 38.35 39.5463C39.2167 38.6747 39.2167 37.3673 38.35 36.4957L34.6667 32.7913Z" fill="white"/>
</g>
<defs>
<filter id="filter0_d_299_590" x="0" y="0.977173" width="65" height="65.3715" filterUnits="userSpaceOnUse" color-interpolation-filters="sRGB">
<feFlood flood-opacity="0" result="BackgroundImageFix"/>
<feColorMatrix in="SourceAlpha" type="matrix" values="0 0 0 0 0 0 0 0 0 0 0 0 0 0 0 0 0 0 127 0" result="hardAlpha"/>
<feOffset/>
<feColorMatrix type="matrix" values="0 0 0 0 0.180392 0 0 0 0 0.615686 0 0 0 0 1 0 0 0 1 0"/>
<feBlend mode="normal" in2="BackgroundImageFix" result="effect1_dropShadow_299_590"/>
<feBlend mode="normal" in="SourceGraphic" in2="effect1_dropShadow_299_590" result="shape"/>
</filter>
</defs>
</svg>
