<svg width="140" height="140" viewBox="0 0 140 140" fill="none" xmlns="http://www.w3.org/2000/svg">
<g filter="url(#filter0_d_544_135)">
<rect width="140" height="140" fill="#00AFF5"/>
<rect x="3.45745" y="3.45745" width="133.085" height="133.085" stroke="white" stroke-width="6.91489"/>
<path fill-rule="evenodd" clip-rule="evenodd" d="M98 38.7333V28C98 20.0667 91.9333 14 84 14H56C48.0667 14 42 20.0667 42 28V38.7333C33.6 46.2 28 57.4 28 70C28 82.6 33.6 93.8 42 101.267V112C42 119.933 48.0667 126 56 126H84C91.9333 126 98 119.933 98 112V101.267C106.4 93.8 112 82.6 112 70C112 57.4 106.4 46.2 98 38.7333ZM51.3333 28C51.3333 25.2 53.2 23.3333 56 23.3333H84C86.8 23.3333 88.6667 25.2 88.6667 28V32.2C83.0667 29.4 76.5333 28 70 28C63.4667 28 56.9333 29.4 51.3333 32.2V28ZM88.6667 112C88.6667 114.8 86.8 116.667 84 116.667H56C53.2 116.667 51.3333 114.8 51.3333 112V107.8C56.9333 110.6 63.4667 112 70 112C76.5333 112 83.0667 110.6 88.6667 107.8V112ZM70 102.667C51.8 102.667 37.3333 88.2 37.3333 70C37.3333 51.8 51.8 37.3333 70 37.3333C88.2 37.3333 102.667 51.8 102.667 70C102.667 88.2 88.2 102.667 70 102.667ZM74.6667 68.1333V51.3333C74.6667 48.5333 72.8 46.6667 70 46.6667C67.2 46.6667 65.3333 48.5333 65.3333 51.3333V70C65.3333 71.4 65.8 72.3333 66.7333 73.2667L76.0667 82.6C77 83.5333 78.4 84 79.3333 84C80.2667 84 81.6667 83.5333 82.6 82.6C84.4667 80.7333 84.4667 77.9333 82.6 76.0667L74.6667 68.1333Z" fill="white"/>
</g>
<defs>
<filter id="filter0_d_544_135" x="0" y="0" width="140" height="140" filterUnits="userSpaceOnUse" color-interpolation-filters="sRGB">
<feFlood flood-opacity="0" result="BackgroundImageFix"/>
<feColorMatrix in="SourceAlpha" type="matrix" values="0 0 0 0 0 0 0 0 0 0 0 0 0 0 0 0 0 0 127 0" result="hardAlpha"/>
<feOffset/>
<feColorMatrix type="matrix" values="0 0 0 0 0.180392 0 0 0 0 0.615686 0 0 0 0 1 0 0 0 1 0"/>
<feBlend mode="normal" in2="BackgroundImageFix" result="effect1_dropShadow_544_135"/>
<feBlend mode="normal" in="SourceGraphic" in2="effect1_dropShadow_544_135" result="shape"/>
</filter>
</defs>
</svg>
