<svg width="39" height="39" viewBox="0 0 39 39" fill="none" xmlns="http://www.w3.org/2000/svg">
<path d="M38.5 19.5C38.5 29.9934 29.9934 38.5 19.5 38.5C9.00659 38.5 0.5 29.9934 0.5 19.5C0.5 9.00659 9.00659 0.5 19.5 0.5C29.9934 0.5 38.5 9.00659 38.5 19.5Z" fill="white" fill-opacity="0.31" stroke="#00AFF5"/>
<path d="M23.5369 17.9865L22.849 18.5247L23.6614 18.8453C25.5608 19.595 27.2189 20.8445 28.4581 22.4595C29.6972 24.0742 30.4709 25.9935 30.6966 28.0116C30.7151 28.186 30.6638 28.361 30.5531 28.4987C30.4471 28.6304 30.2948 28.7178 30.1265 28.7433L30.0296 28.7433L30.0266 28.7433C29.8587 28.7443 29.6968 28.6834 29.5722 28.5731C29.4476 28.4628 29.369 28.311 29.3507 28.1473L29.3507 28.1465C29.0786 25.7377 27.9237 23.5137 26.1076 21.899C24.2915 20.2844 21.9414 19.3922 19.5064 19.3922C17.0714 19.3922 14.7213 20.2844 12.9052 21.899C11.089 23.5137 9.93417 25.7377 9.6621 28.1465L9.66197 28.1476C9.64234 28.3251 9.55256 28.4882 9.41138 28.6008C9.27011 28.7135 9.08909 28.766 8.9082 28.7462C8.72734 28.7265 8.56249 28.6361 8.44956 28.496C8.39365 28.4267 8.35215 28.3472 8.32728 28.2622C8.30244 28.1773 8.29465 28.0884 8.30432 28.0006C8.52889 25.9879 9.29847 24.0732 10.5313 22.4608C11.7642 20.8483 13.4143 19.5984 15.3058 18.8447L16.1141 18.5227L15.4288 17.9865C14.3579 17.1485 13.5766 15.9997 13.1932 14.7003C12.8098 13.4009 12.8431 12.015 13.2887 10.7353C13.7342 9.4555 14.5699 8.34519 15.68 7.5591C16.7902 6.77299 18.1194 6.35034 19.4829 6.35034C20.8463 6.35034 22.1755 6.77299 23.2857 7.5591C24.3958 8.34519 25.2315 9.4555 25.6771 10.7353C26.1226 12.015 26.156 13.4009 25.7725 14.7003C25.3891 15.9997 24.6078 17.1485 23.5369 17.9865ZM16.5932 17.1782C17.4488 17.7467 18.4544 18.05 19.4829 18.05C20.8619 18.05 22.1851 17.5052 23.161 16.5346C24.1371 15.5639 24.686 14.2467 24.686 12.8727C24.686 11.8481 24.3805 10.8468 23.8084 9.99531C23.2363 9.14387 22.4235 8.48067 21.4731 8.08915C20.5227 7.69764 19.4771 7.59524 18.4683 7.7948C17.4595 7.99436 16.5325 8.48699 15.8047 9.21084C15.0768 9.93472 14.5808 10.8573 14.3798 11.8622C14.1789 12.867 14.282 13.9085 14.6762 14.8549C15.0703 15.8012 15.7376 16.6096 16.5932 17.1782Z" fill="black" stroke="black"/>
</svg>
