<svg width="164" height="156" viewBox="0 0 164 156" fill="none" xmlns="http://www.w3.org/2000/svg">
<path fill-rule="evenodd" clip-rule="evenodd" d="M163.257 147.281V132.903C163.257 125.257 158.295 123.685 151.972 119.894H111.86C105.537 123.685 100.575 125.257 100.575 132.903V147.281C100.575 149.047 101.39 148.825 102.741 148.825H161.09C162.442 148.825 163.257 149.047 163.257 147.281Z" fill="#F9F7F7"/>
<path fill-rule="evenodd" clip-rule="evenodd" d="M140.79 142.011L135.652 130.888L131.912 128.78L128.162 130.888L123.025 142.011C122.978 142.122 122.941 142.122 123.015 142.214L126.903 148.825H136.901L140.799 142.214C140.863 142.122 140.826 142.122 140.79 142.011Z" fill="#7BACDF"/>
<path fill-rule="evenodd" clip-rule="evenodd" d="M135.651 130.888L137.244 124.628L138.058 121.53L131.911 118.988L129.023 120.338L125.82 121.827L126.57 124.646L128.162 130.888H131.902H135.651Z" fill="#3987D0"/>
<path fill-rule="evenodd" clip-rule="evenodd" d="M126.57 124.646L131.912 118.988L128.237 115.437L121.034 114.402L111.86 119.894L121.423 126.079C123.201 127.115 123.608 128.077 124.932 126.375L126.57 124.646ZM142.409 126.08L151.972 119.894L142.798 114.402L137.244 114.772L131.912 118.988L137.244 124.628L138.892 126.375C140.225 128.077 140.632 127.115 142.409 126.08Z" fill="#CECECE"/>
<path fill-rule="evenodd" clip-rule="evenodd" d="M142.798 114.402C146.667 111.184 149.574 106.746 150.528 102.558C150.75 101.596 150.87 100.644 150.87 99.7192V87.163H147.38C140.002 87.163 138.465 78.0835 129.439 78.0835H125.051C118.145 78.0835 123.404 88.5499 115.461 88.5499H112.961V99.7192C112.961 100.644 113.082 101.596 113.304 102.558C114.257 106.746 117.164 111.184 121.034 114.402C122.894 115.946 124.977 117.213 127.171 118.026C128.893 118.674 130.402 118.988 131.911 118.988C133.429 118.988 134.938 118.673 136.66 118.026C138.854 117.213 140.937 115.946 142.798 114.402Z" fill="#FFE5C1"/>
<path fill-rule="evenodd" clip-rule="evenodd" d="M150.871 83.5201C150.871 74.6716 141.78 68.6522 133.365 67.7925H129.375C126.135 68.1529 123.274 69.4289 121.451 71.796C112.295 72.6003 112.962 84.7776 112.962 86.377V93.8942H115.461C123.404 93.8942 118.146 83.4278 125.052 83.4278H129.44C138.466 83.4278 140.003 92.5073 147.381 92.5073H150.871V89.7614V83.5201Z" fill="#838383"/>
<path fill-rule="evenodd" clip-rule="evenodd" d="M150.871 87.1631V83.5201C150.871 74.6716 141.78 68.6522 133.365 67.7925H129.384C137.586 68.9112 146.168 74.8381 146.168 83.437V92.4243C146.556 92.4797 146.955 92.5073 147.38 92.5073H150.87V87.1631H150.871Z" fill="#595959"/>
<path fill-rule="evenodd" clip-rule="evenodd" d="M150.871 99.7193V92.5073H147.381C146.955 92.5073 146.557 92.4794 146.168 92.4242C139.799 91.4995 137.948 83.4277 129.44 83.4277H125.052C122.506 83.4277 121.608 84.8609 121.099 86.6638H126.126C134.624 86.6638 136.485 95.6416 142.845 96.5663L145.622 96.6217C146.178 96.6217 146.168 96.8253 146.168 97.343V99.6175C146.168 100.542 146.048 101.495 145.826 102.456C144.872 106.644 141.966 111.083 138.096 114.3C137.92 114.448 137.726 114.605 137.541 114.753C136.84 115.297 136.111 115.803 135.356 116.269C134.278 116.928 133.141 117.482 131.958 117.925C131.671 118.036 131.394 118.137 131.116 118.22C130.496 118.424 129.903 118.581 129.329 118.683C130.218 118.886 131.061 118.988 131.912 118.988C133.43 118.988 134.939 118.673 136.661 118.026C138.855 117.213 140.938 115.946 142.799 114.402C146.668 111.184 149.575 106.746 150.529 102.558C150.75 101.596 150.871 100.644 150.871 99.7193Z" fill="#FED1A3"/>
<path fill-rule="evenodd" clip-rule="evenodd" d="M127.579 123.583L131.911 118.988C131.06 118.988 130.217 118.886 129.329 118.683C128.595 118.515 127.874 118.296 127.172 118.026C124.978 117.212 122.895 115.946 121.034 114.402L116.628 117.037C117.145 117.536 117.682 118.014 118.238 118.47C120.571 120.421 123.191 122.011 125.95 123.037C126.024 123.065 126.089 123.084 126.163 123.111C126.63 123.283 127.102 123.44 127.579 123.583Z" fill="#B5ADB6"/>
<path fill-rule="evenodd" clip-rule="evenodd" d="M137.883 123.038C140.641 122.012 143.261 120.421 145.594 118.47C146.15 118.015 146.688 117.537 147.205 117.037L142.798 114.402C140.937 115.946 138.855 117.213 136.661 118.026C134.939 118.674 133.43 118.988 131.911 118.988L136.253 123.583C136.72 123.443 137.184 123.289 137.642 123.121C137.725 123.093 137.799 123.066 137.883 123.038Z" fill="#B5ADB6"/>
<path fill-rule="evenodd" clip-rule="evenodd" d="M136.253 123.583L131.912 118.988L129.616 121.429L132.078 124.674L132.838 125.636C133.069 125.922 133.004 125.968 132.912 126.329L132.18 129.195L131.912 130.887H135.652L137.244 124.627L136.253 123.583Z" fill="#0067B4"/>
<path fill-rule="evenodd" clip-rule="evenodd" d="M140.79 142.011L135.652 130.888H131.912L135.8 142.011C135.846 142.122 135.883 142.122 135.809 142.214L131.912 148.825H136.901L140.799 142.214C140.863 142.122 140.826 142.122 140.79 142.011Z" fill="#3987D0"/>
<path fill-rule="evenodd" clip-rule="evenodd" d="M163.257 132.903C163.257 125.257 158.295 123.685 151.972 119.894L146.075 123.704C151.546 126.829 155.611 128.771 155.611 135.687V148.825H161.091C162.442 148.825 163.257 149.047 163.257 147.281V132.903H163.257Z" fill="#E2E2E2"/>
<path fill-rule="evenodd" clip-rule="evenodd" d="M63.6198 147.281V132.903C63.6198 125.257 58.6671 123.685 52.3443 119.894L32.2835 118.988L12.2227 119.894C5.89994 123.685 0.947266 125.257 0.947266 132.903V147.281C0.947266 149.047 1.75279 148.825 3.1134 148.825H61.4533C62.8143 148.825 63.6198 149.047 63.6198 147.281Z" fill="#F9F7F7"/>
<path fill-rule="evenodd" clip-rule="evenodd" d="M41.1521 142.011L36.0143 130.888L32.2837 128.78L28.5344 130.888L23.3966 142.011C23.3503 142.122 23.3132 142.122 23.3782 142.214L27.2756 148.825H37.2735L41.1708 142.214C41.2352 142.122 41.1984 142.122 41.1521 142.011Z" fill="#FE9737"/>
<path fill-rule="evenodd" clip-rule="evenodd" d="M36.0139 130.888L37.6154 124.628L38.4301 121.53L32.2833 118.988L29.395 120.338L26.1919 121.827L26.9416 124.646L28.534 130.888H32.2741H36.0139Z" fill="#FE7600"/>
<path fill-rule="evenodd" clip-rule="evenodd" d="M26.9417 124.646L32.2834 118.988L28.6083 115.437L21.3969 114.402L12.2229 119.894L21.7951 126.079C23.5725 127.115 23.9704 128.077 25.3037 126.375L26.9417 124.646ZM42.772 126.08L52.3442 119.894L43.1702 114.402L37.6158 114.772L32.2837 118.988L37.6158 124.628L39.2637 126.375C40.5964 128.077 41.0037 127.115 42.772 126.08Z" fill="#CECECE"/>
<path fill-rule="evenodd" clip-rule="evenodd" d="M43.1703 114.402C47.0397 111.184 49.9467 106.746 50.9003 102.558C51.1225 101.596 51.2335 100.644 51.2335 99.7192V87.163H47.7527C40.3746 87.163 38.8285 78.0835 29.8117 78.0835H25.4237C18.5176 78.0835 23.7759 88.5499 15.8236 88.5499H13.3335V99.7192C13.3335 100.644 13.4445 101.596 13.6667 102.558C14.6202 106.746 17.5269 111.184 21.3967 114.402C23.2575 115.946 25.3403 117.213 27.5343 118.026C29.2655 118.674 30.7745 118.988 32.2835 118.988C33.7925 118.988 35.3014 118.673 37.0326 118.026C39.2267 117.213 41.3094 115.946 43.1703 114.402Z" fill="#FFE5C1"/>
<path fill-rule="evenodd" clip-rule="evenodd" d="M51.2334 83.5201C51.2334 74.6716 42.1428 68.6522 33.7278 67.7925H29.7375C26.4974 68.1529 23.637 69.4289 21.8132 71.796C12.6576 72.6003 13.3335 84.7776 13.3335 86.377V93.8942H15.8236C23.7758 93.8942 18.5175 83.4278 25.4236 83.4278H29.8117C38.8285 83.4278 40.3745 92.5073 47.7527 92.5073H51.2334V89.7614V83.5201Z" fill="#838383"/>
<path fill-rule="evenodd" clip-rule="evenodd" d="M51.2336 87.1631V83.5201C51.2336 74.6716 42.1429 68.6522 33.7279 67.7925H29.7563C37.9584 68.9112 44.9846 73.9872 44.9846 82.5769V89.6688L46.5307 92.4243C46.9193 92.4797 47.3267 92.5073 47.7528 92.5073H51.2336V88.5501V87.1631Z" fill="#595959"/>
<path fill-rule="evenodd" clip-rule="evenodd" d="M27.9509 123.583L32.2835 118.988C31.4317 118.988 30.5802 118.886 29.6913 118.683C28.9582 118.513 28.2376 118.294 27.5344 118.026C25.3403 117.212 23.2576 115.946 21.3967 114.402L16.9902 117.037C17.5114 117.532 18.0486 118.01 18.601 118.47C20.9431 120.421 23.5628 122.011 26.3218 123.037C26.3865 123.065 26.4606 123.084 26.5348 123.111C27.002 123.283 27.4742 123.44 27.9509 123.583ZM38.2452 123.038C41.0039 122.011 43.6236 120.421 45.966 118.47C46.5224 118.015 47.0598 117.537 47.5768 117.037L43.1703 114.402C41.3095 115.946 39.2267 117.213 37.0326 118.026C35.3015 118.674 33.7925 118.988 32.2835 118.988L36.6253 123.583C37.0917 123.44 37.5547 123.286 38.0138 123.121C38.088 123.093 38.1714 123.066 38.2452 123.038Z" fill="#B5ADB6"/>
<path fill-rule="evenodd" clip-rule="evenodd" d="M36.625 123.583L32.2833 118.988L29.9783 121.429L32.4408 124.674L33.2001 125.636C33.4315 125.922 33.376 125.968 33.2834 126.329L32.5521 129.195L32.2836 130.887H36.0142L37.6157 124.627L36.625 123.583Z" fill="#E6581F"/>
<path fill-rule="evenodd" clip-rule="evenodd" d="M41.1522 142.011L36.0144 130.888H32.2834L36.1624 142.011C36.2087 142.122 36.2458 142.122 36.1808 142.214L32.2834 148.825H37.2732L41.1705 142.214C41.2352 142.122 41.1984 142.122 41.1522 142.011Z" fill="#F36B37"/>
<path fill-rule="evenodd" clip-rule="evenodd" d="M63.6195 132.903C63.6195 125.257 58.6669 123.685 52.3441 119.894L46.447 123.704C51.9088 126.829 55.9821 128.771 55.9821 135.687V148.825H61.4531C62.814 148.825 63.6192 149.047 63.6192 147.281L63.6195 132.903Z" fill="#E2E2E2"/>
<path fill-rule="evenodd" clip-rule="evenodd" d="M59.139 9.163C70.9327 -2.61651 90.0495 -2.61651 101.843 9.163C113.628 20.9425 113.628 40.0355 101.843 51.8058C90.0495 63.5853 70.9327 63.5853 59.139 51.8058C47.3544 40.0358 47.3544 20.9425 59.139 9.163Z" fill="#5200D9"/>
<path fill-rule="evenodd" clip-rule="evenodd" d="M91.7344 9.16303C103.528 20.9425 103.528 40.0355 91.7344 51.8058C87.8833 55.6521 83.2546 58.2411 78.3574 59.5818C77.396 59.8406 76.4229 60.0534 75.4412 60.2196C79.7748 60.9522 84.2159 60.7346 88.4571 59.5818C93.3635 58.2411 97.9922 55.6521 101.843 51.8058C107.277 46.3783 110.202 39.3977 110.629 32.2874C110.703 31.0866 110.703 29.8823 110.629 28.6814C110.203 21.5712 107.277 14.5903 101.843 9.16303C97.5569 4.88211 92.3081 2.16373 86.7906 0.989524C83.06 0.19446 79.1994 0.120279 75.4409 0.749229C81.403 1.75701 87.1333 4.55876 91.7344 9.16303Z" fill="#3D009F"/>
<path d="M75.8763 41.2996C75.2967 41.2996 74.7359 41.0942 74.2935 40.7198L65.9897 33.6929C65.7442 33.4854 65.542 33.2315 65.3948 32.9457C65.2475 32.6599 65.158 32.348 65.1314 32.0276C65.1048 31.7072 65.1417 31.3847 65.2398 31.0786C65.338 30.7725 65.4955 30.4887 65.7034 30.2435C66.1234 29.7482 66.7229 29.4398 67.3702 29.3862C68.0175 29.3325 68.6595 29.5381 69.1553 29.9576L75.5805 35.3947L89.626 18.6492C90.0435 18.1516 90.6414 17.8401 91.2883 17.7831C91.9353 17.7262 92.5785 17.9284 93.0764 18.3455C93.3229 18.5518 93.5263 18.8047 93.675 19.0897C93.8237 19.3746 93.9148 19.6861 93.943 20.0064C93.9713 20.3266 93.9361 20.6492 93.8396 20.9558C93.743 21.2624 93.587 21.547 93.3804 21.7933L77.7536 40.424C77.5237 40.6983 77.2364 40.9188 76.9121 41.07C76.5877 41.2213 76.2342 41.2997 75.8763 41.2996Z" fill="#F9F7F7"/>
<path fill-rule="evenodd" clip-rule="evenodd" d="M46.5307 92.4242C40.1708 91.4995 38.3103 83.4277 29.8118 83.4277H25.4238C22.8687 83.4277 21.9801 84.8609 21.4709 86.6638H26.4978C34.9959 86.6638 36.8476 95.4938 43.2167 96.4185H44.7627C45.022 96.4185 44.985 96.5387 44.985 96.7885C44.985 98.7394 45.0867 100.543 44.6426 102.456C44.6242 102.558 44.5963 102.66 44.5779 102.761C43.1431 108.938 41.2081 112.923 35.7187 116.27C34.6455 116.93 33.5108 117.484 32.3305 117.925C32.0436 118.036 31.7659 118.138 31.4882 118.221C30.8678 118.424 30.2756 118.581 29.6923 118.683C30.5809 118.886 31.4327 118.988 32.2845 118.988C33.7935 118.988 35.3025 118.674 37.0337 118.027C39.2277 117.213 41.3105 115.946 43.1713 114.402C47.0408 111.185 49.9478 106.746 50.9013 102.558C51.1236 101.597 51.2345 100.644 51.2345 99.7196V92.5076H47.7537C47.3446 92.5086 46.9359 92.4807 46.5307 92.4242Z" fill="#FED1A3"/>
<path fill-rule="evenodd" clip-rule="evenodd" d="M44.9846 92.0359C45.4754 92.2115 45.9845 92.3412 46.5307 92.4243C46.9193 92.4797 47.3267 92.5073 47.7528 92.5073H51.2336V83.5201C51.2336 74.6716 42.1429 68.6522 33.7279 67.7925H29.7563C37.9584 68.9112 44.9846 73.9872 44.9846 82.5769V92.0359Z" fill="#595959"/>
<path fill-rule="evenodd" clip-rule="evenodd" d="M113.443 154.419V140.041C113.443 132.404 108.481 130.832 102.158 127.041L92.5954 133.227C90.8179 134.253 90.4106 135.224 89.0775 133.513L87.4297 131.775L82.0976 126.135L76.7559 131.784L75.1173 133.513C73.7843 135.224 73.3861 134.253 71.6086 133.227L62.0456 127.041C55.7137 130.832 50.761 132.404 50.761 140.041V154.419C50.761 156.194 51.5757 155.972 52.9271 155.972H111.267C112.628 155.972 113.443 156.194 113.443 154.419Z" fill="#7BACDF"/>
<path fill-rule="evenodd" clip-rule="evenodd" d="M90.9661 149.149L85.8375 138.026L82.0974 135.917L78.3481 138.026L73.2103 149.149C73.164 149.26 73.1269 149.269 73.2011 149.361L77.0892 155.972H87.0872L90.9845 149.361C91.0495 149.269 91.0124 149.26 90.9661 149.149Z" fill="#FE9737"/>
<path fill-rule="evenodd" clip-rule="evenodd" d="M85.8373 138.026L87.4297 131.776L88.2444 128.678L82.0972 126.135L79.2089 127.476L76.0059 128.965L76.7559 131.785L78.3483 138.026H82.088H85.8373Z" fill="#FE7600"/>
<path fill-rule="evenodd" clip-rule="evenodd" d="M76.756 131.785L82.0977 126.135L78.4226 122.585L71.2112 121.54L62.0464 127.041L71.6094 133.227C73.3868 134.253 73.7847 135.224 75.118 133.513L76.756 131.785ZM92.5955 133.227L102.158 127.042L92.9845 121.54L87.4301 121.91L82.098 126.136L87.4301 131.776L89.078 133.514C90.4107 135.224 90.818 134.253 92.5955 133.227Z" fill="#0078C8"/>
<path fill-rule="evenodd" clip-rule="evenodd" d="M92.984 121.54C96.8535 118.322 99.7605 113.884 100.714 109.705C100.936 108.734 101.047 107.782 101.047 106.857V94.301H97.5664C90.1883 94.301 88.6514 85.2214 79.6255 85.2214H75.2374C68.3313 85.2214 73.5896 95.6879 65.6469 95.6879H63.1472V106.857C63.1472 107.782 63.2677 108.734 63.4804 109.705C64.4432 113.884 67.3498 118.322 71.2104 121.54C73.0713 123.084 75.154 124.351 77.3481 125.173C79.0793 125.811 80.5882 126.135 82.0972 126.135C83.6062 126.135 85.1244 125.811 86.8464 125.173C89.0404 124.351 91.1232 123.084 92.984 121.54Z" fill="#FFE5C1"/>
<path fill-rule="evenodd" clip-rule="evenodd" d="M101.047 90.6582C101.047 81.8098 91.9567 75.7904 83.5508 74.9307H79.5609C76.3207 75.2911 73.4511 76.5766 71.6366 78.9342C62.4718 79.7385 63.1476 91.9158 63.1476 93.5152V101.042H65.6473C73.59 101.042 68.332 90.5752 75.2378 90.5752H79.6259C88.6518 90.5752 90.1887 99.6547 97.5668 99.6547H101.048V90.6582H101.047Z" fill="#838383"/>
<path fill-rule="evenodd" clip-rule="evenodd" d="M101.047 90.6582C101.047 81.8098 91.9567 75.7904 83.5508 74.9307H79.5701C87.7721 76.0494 96.3536 81.9854 96.3536 90.5752C96.3444 93.5709 96.3444 96.5667 96.3536 99.5625C96.7331 99.6271 97.1404 99.655 97.5665 99.655H101.047V90.6582Z" fill="#595959"/>
<path fill-rule="evenodd" clip-rule="evenodd" d="M96.3539 99.562C89.9848 98.6373 88.1334 90.5747 79.6258 90.5747H75.2377C72.6826 90.5747 71.794 91.9987 71.2849 93.8016H76.3118C84.8099 93.8016 86.6616 102.632 93.0306 103.556H94.5859C94.8357 103.556 94.7989 103.686 94.7989 103.935C94.7989 105.886 94.9007 107.68 94.4657 109.603C94.4378 109.705 94.4195 109.797 94.3916 109.899C92.9568 116.075 91.0217 120.061 85.5324 123.408C84.4491 124.073 83.3104 124.637 82.1441 125.072C81.8572 125.174 81.5795 125.275 81.3018 125.368C80.6814 125.562 80.0893 125.719 79.506 125.83C80.3946 126.033 81.2464 126.135 82.0982 126.135C83.6071 126.135 85.1253 125.811 86.8473 125.173C89.0414 124.35 91.1241 123.084 92.985 121.54C96.8544 118.322 99.7614 113.884 100.715 109.705C100.937 108.734 101.048 107.781 101.048 106.857V99.6542H97.5674C97.1407 99.6545 96.7333 99.6267 96.3539 99.562Z" fill="#FED1A3"/>
<path fill-rule="evenodd" clip-rule="evenodd" d="M77.765 130.722L82.0976 126.135C81.2457 126.135 80.3943 126.034 79.5054 125.83C78.8203 125.673 78.1073 125.451 77.3484 125.174C75.1544 124.351 73.0716 123.084 71.2107 121.54L66.8135 124.185C67.3342 124.677 67.8682 125.155 68.415 125.618C70.7571 127.56 73.3769 129.15 76.1358 130.176C76.21 130.204 76.2747 130.232 76.3489 130.259C76.8163 130.427 77.2885 130.581 77.765 130.722Z" fill="#0067B4"/>
<path fill-rule="evenodd" clip-rule="evenodd" d="M88.0686 130.176C90.8273 129.15 93.4379 127.559 95.7799 125.618C96.3318 125.157 96.869 124.679 97.3907 124.184L92.9842 121.54C91.1234 123.084 89.0406 124.351 86.8466 125.173C85.1246 125.811 83.6064 126.135 82.0974 126.135L86.4392 130.721C86.8928 130.592 87.3557 130.435 87.8277 130.268C87.9058 130.232 87.9863 130.201 88.0686 130.176Z" fill="#0067B4"/>
<path fill-rule="evenodd" clip-rule="evenodd" d="M86.4391 130.721L82.0973 126.135L79.8015 128.567L82.2549 131.822L83.0141 132.774C83.2455 133.061 83.1901 133.107 83.0975 133.467L82.3661 136.343L82.0976 138.026H85.8377L87.4301 131.776L86.4391 130.721Z" fill="#E6581F"/>
<path fill-rule="evenodd" clip-rule="evenodd" d="M90.9661 149.149L85.8375 138.026H82.0974L85.9764 149.149C86.0226 149.26 86.0597 149.269 85.9947 149.361L82.0974 155.972H87.0872L90.9845 149.361C91.0495 149.269 91.0124 149.26 90.9661 149.149Z" fill="#F36B37"/>
<path fill-rule="evenodd" clip-rule="evenodd" d="M113.443 140.041C113.443 132.404 108.481 130.832 102.159 127.041L96.2615 130.851C101.732 133.967 105.797 135.908 105.797 142.834V155.972H111.268C112.628 155.972 113.443 156.194 113.443 154.419V140.041H113.443Z" fill="#3987D0"/>
</svg>
