<svg width="39" height="39" viewBox="0 0 39 39" fill="none" xmlns="http://www.w3.org/2000/svg">
<ellipse cx="19.5" cy="19.5" rx="19.5" ry="19.5" fill="#4F55A1"/>
<path d="M23.8445 18.3802C24.9972 17.4783 25.8386 16.2415 26.2516 14.8418C26.6646 13.4421 26.6287 11.9493 26.1488 10.5709C25.6689 9.19247 24.769 7.99709 23.5742 7.15104C22.3794 6.30499 20.9491 5.85034 19.4824 5.85034C18.0156 5.85034 16.5854 6.30499 15.3906 7.15104C14.1958 7.99709 13.2958 9.19247 12.816 10.5709C12.3361 11.9493 12.3001 13.4421 12.7131 14.8418C13.1261 16.2415 13.9675 17.4783 15.1202 18.3802C13.145 19.1673 11.4216 20.4726 10.1336 22.1571C8.84569 23.8416 8.04154 25.8421 7.8069 27.9453C7.78991 28.0989 7.80351 28.2543 7.8469 28.4026C7.8903 28.5509 7.96265 28.6893 8.05982 28.8098C8.25607 29.0533 8.5415 29.2092 8.85334 29.2433C9.16518 29.2774 9.47787 29.1869 9.72262 28.9918C9.96738 28.7966 10.1242 28.5127 10.1585 28.2026C10.4166 25.9168 11.5126 23.8057 13.2369 22.2727C14.9612 20.7397 17.193 19.8922 19.5059 19.8922C21.8188 19.8922 24.0506 20.7397 25.7749 22.2727C27.4992 23.8057 28.5951 25.9168 28.8533 28.2026C28.8853 28.4899 29.0231 28.7553 29.2403 28.9475C29.4574 29.1397 29.7384 29.245 30.0291 29.2433H30.1584C30.4667 29.208 30.7484 29.053 30.9422 28.8121C31.136 28.5712 31.2262 28.2638 31.1931 27.957C30.9574 25.8478 30.1489 23.8422 28.8543 22.1551C27.5598 20.468 25.8279 19.1631 23.8445 18.3802ZM19.4824 17.55C18.5522 17.55 17.6429 17.2757 16.8695 16.7618C16.096 16.2478 15.4932 15.5173 15.1373 14.6627C14.7813 13.808 14.6882 12.8675 14.8696 11.9602C15.0511 11.0529 15.499 10.2195 16.1568 9.56537C16.8145 8.91124 17.6525 8.46577 18.5648 8.28529C19.4772 8.10482 20.4228 8.19744 21.2822 8.55146C22.1416 8.90547 22.8761 9.50497 23.3929 10.2742C23.9097 11.0433 24.1855 11.9476 24.1855 12.8727C24.1855 14.1132 23.69 15.3029 22.808 16.1801C21.926 17.0572 20.7297 17.55 19.4824 17.55Z" fill="white"/>
</svg>
