<svg width="164" height="163" viewBox="0 0 164 163" fill="none" xmlns="http://www.w3.org/2000/svg">
<g clip-path="url(#clip0_549_329)">
<path d="M29.8107 104.985C25.3019 104.985 21.6467 101.33 21.6467 96.8207V80.3796C21.6467 75.8707 25.3019 72.2156 29.8107 72.2156H133.985C138.494 72.2156 142.149 75.8707 142.149 80.3796V96.8207C142.149 101.33 138.494 104.985 133.985 104.985H29.8107Z" fill="#8AC9FE"/>
<path d="M141.985 78.7483H46.1406C41.6305 78.7483 37.976 82.4028 37.976 86.9129V103.353C37.976 103.911 38.0315 104.46 38.1392 104.986H29.8114C25.3012 104.986 21.6467 101.331 21.6467 96.8211V80.3812C21.6467 75.8711 25.3012 72.2166 29.8114 72.2166H133.984C137.936 72.2166 141.228 75.0218 141.985 78.7483Z" fill="#60B7FF"/>
<path d="M41.0994 104.985V71.2862C41.0993 70.986 41.1584 70.6887 41.2733 70.4114C41.3882 70.134 41.5565 69.882 41.7688 69.6697C41.9811 69.4574 42.2331 69.289 42.5105 69.1742C42.7878 69.0593 43.0851 69.0002 43.3853 69.0002H48.3925C48.6927 69.0002 48.99 69.0594 49.2673 69.1743C49.5447 69.2891 49.7967 69.4575 50.009 69.6698C50.2212 69.8821 50.3896 70.1341 50.5045 70.4114C50.6194 70.6888 50.6785 70.986 50.6785 71.2862V104.985H41.0994ZM122.682 104.985V71.2862C122.682 70.6799 122.441 70.0985 122.012 69.6698C121.583 69.2411 121.002 69.0002 120.396 69.0002H115.388C114.782 69.0002 114.201 69.2411 113.772 69.6698C113.343 70.0985 113.102 70.6799 113.102 71.2862V104.985H122.682Z" fill="#D8ECFE"/>
<path d="M134.027 117.389V162.31H29.7695V117.389C29.7695 103.134 41.324 91.5796 55.579 91.5796H108.217C108.766 91.5796 109.311 91.5961 109.85 91.6319C110.771 91.6874 111.679 91.792 112.57 91.9454C115.028 92.361 117.411 93.1345 119.644 94.2412C120.583 94.7052 121.493 95.2265 122.368 95.8022C129.389 100.413 134.027 108.359 134.027 117.389Z" fill="#5200D9"/>
<path d="M134.027 150.534V162.31H132.88L117.913 149.903C112.786 145.651 109.85 139.397 109.85 132.735V91.6316C110.771 91.6871 111.679 91.7917 112.57 91.9451C115.028 92.3607 117.411 93.1342 119.644 94.2409V132.735C119.644 136.471 121.293 139.975 124.167 142.359L134.027 150.534Z" fill="#9BE27D"/>
<path d="M125.392 98.1271C125.11 98.1151 124.828 98.1096 124.546 98.1107H71.908C57.6529 98.1107 46.0985 109.665 46.0985 123.92V162.31H29.7695V117.389C29.7695 103.134 41.324 91.5796 55.579 91.5796H108.217C109.7 91.5796 111.157 91.7039 112.57 91.9454C116.068 92.5378 119.405 93.8512 122.368 95.8022C123.432 96.5005 124.443 97.2777 125.392 98.1271Z" fill="#3D009F"/>
<path d="M93.2793 74.7734V91.7589C93.2793 94.904 92.0055 97.7485 89.945 99.8059C88.8897 100.865 87.6355 101.704 86.2544 102.277C84.8734 102.849 83.3928 103.142 81.8979 103.14C75.6113 103.14 70.5166 98.0456 70.5166 91.7589V74.7734H93.2793Z" fill="#FED2A4"/>
<path d="M82.0418 91.081C84.9107 89.6142 89.0284 90.0608 92.1767 88.8591C92.2901 88.8156 93.2792 88.4948 93.2792 88.4118V74.7739H70.5168V91.7591C70.5168 98.0457 75.6115 103.14 81.8982 103.14C83.6519 103.14 85.3143 102.745 86.797 102.033C85.4581 101.393 84.2567 100.499 83.2597 99.3994C81.98 97.9877 78.7598 92.7593 82.0418 91.081Z" fill="#FFBD86"/>
<path d="M116.963 40.7385L82.849 35.3931L53.0378 40.7385V55.3515C53.0378 71.2905 65.9589 84.2116 81.8979 84.2116C97.2381 84.2116 109.781 72.2425 110.702 57.1337H116.963C119.33 57.1337 121.249 55.2145 121.249 52.8474V45.0251C121.249 42.6577 119.33 40.7385 116.963 40.7385Z" fill="#FED2A4"/>
<path d="M124.131 30.0486H117.106L108.018 10.7968C105.095 4.60491 99.4286 0.561744 93.1061 0.055477C92.6574 0.018981 92.2074 0.000473819 91.7572 0L73.1455 0C66.2904 0 60.0104 4.16712 56.8819 10.7968L47.7963 30.0486H39.6643C36.797 30.0486 34.4717 32.3707 34.4717 35.238V35.5484C34.4717 38.4158 36.797 40.7379 39.6643 40.7379H124.131C126.998 40.7379 129.323 38.4158 129.323 35.5484V35.238C129.324 32.3707 126.998 30.0486 124.131 30.0486Z" fill="#E19974"/>
<path d="M55.9937 40.7376H39.6648C36.7974 40.7376 34.4722 38.4155 34.4722 35.5482V35.2378C34.4722 32.3704 36.7974 30.0483 39.6648 30.0483H55.9937C53.1264 30.0483 50.8011 32.3704 50.8011 35.2378V35.5482C50.8011 38.4155 53.1264 40.7376 55.9937 40.7376Z" fill="#DC8758"/>
<path d="M114.047 23.5682H81.3061C74.7405 23.5682 70.4091 16.7344 73.2112 10.7968C76.3395 4.16711 82.6198 0 89.4745 0H73.1456C66.2908 0 60.0105 4.16711 56.8819 10.7968L47.7964 30.0486H117.106L114.047 23.5682Z" fill="#DC8758"/>
<path d="M53.038 40.7376V40.7421L53.0377 40.7389H46.8332C44.4657 40.7389 42.5469 42.6581 42.5469 45.0252V52.8478C42.5469 55.2152 44.4661 57.1341 46.8332 57.1341H53.0989C53.9789 71.5648 65.4557 83.1328 79.8537 84.14C73.4495 78.8462 69.3673 70.8417 69.3673 61.8836C69.3673 53.8121 75.9104 47.269 83.9818 47.269H110.758V40.7373H53.038V40.7376Z" fill="#FFBD86"/>
<path d="M117.636 142.36C114.763 139.976 113.114 136.472 113.114 132.736V87.1519C113.114 86.5457 112.873 85.9642 112.444 85.5355C112.015 85.1068 111.434 84.866 110.828 84.866H105.603C104.996 84.866 104.415 85.1068 103.986 85.5355C103.558 85.9642 103.317 86.5457 103.317 87.1519V132.736C103.317 139.398 106.256 145.652 111.383 149.903L126.349 162.31H134.026L134.027 155.948L117.636 142.36ZM46.1441 142.36C49.0178 139.976 50.6669 136.472 50.6669 132.736V87.1519C50.6669 86.5457 50.9077 85.9642 51.3364 85.5355C51.7651 85.1068 52.3466 84.866 52.9529 84.866H58.1778C58.7841 84.866 59.3656 85.1068 59.7943 85.5355C60.223 85.9642 60.4638 86.5457 60.4638 87.1519V132.736C60.4638 139.398 57.5248 145.652 52.3978 149.903L37.4314 162.31H29.7543L29.7537 155.948L46.1441 142.36Z" fill="#FEDBA6"/>
</g>
<defs>
<clipPath id="clip0_549_329">
<rect width="162.31" height="162.31" fill="white" transform="translate(0.74292)"/>
</clipPath>
</defs>
</svg>
