<svg width="163" height="163" viewBox="0 0 163 163" fill="none" xmlns="http://www.w3.org/2000/svg">
<path d="M35.6165 53.4309H66.0496V116.833H35.6165V53.4309Z" fill="#3D009F"/>
<path d="M40.6887 53.4309H66.0496V116.833H40.6887V53.4309Z" fill="#5200D9"/>
<path d="M111.699 53.4309H142.132V119.369H111.699V53.4309Z" fill="#3D009F"/>
<path d="M116.771 53.4309H142.132V119.369H116.771V53.4309Z" fill="#5200D9"/>
<path d="M60.9775 25.5339H116.772V35.6783H60.9775V25.5339Z" fill="#B3B3B3"/>
<path d="M71.1217 30.6061H116.771V25.5339H66.0496C66.0496 26.8792 66.584 28.1693 67.5352 29.1205C68.4864 30.0717 69.7765 30.6061 71.1217 30.6061Z" fill="#E6E6E6"/>
<path d="M66.0496 35.6782V114.297H111.699V35.6782" fill="#2A78E9"/>
<path d="M71.1218 35.6782H111.699V114.297H71.1218V35.6782Z" fill="#4B97F3"/>
<path d="M88.8744 45.8226C83.0793 44.374 77.9347 41.0298 74.2585 36.3215C70.5823 31.6133 68.5856 25.8112 68.5857 19.8378V12.8534C70.6035 12.8534 72.5387 12.0518 73.9656 10.625C75.3924 9.19815 76.194 7.26296 76.194 5.24512H101.555C101.555 7.26296 102.356 9.19815 103.783 10.625C105.21 12.0518 107.145 12.8534 109.163 12.8534V19.8378C109.163 25.8112 107.167 31.6133 103.49 36.3215C99.8142 41.0298 94.6696 44.374 88.8744 45.8226Z" fill="#5200D9"/>
<path d="M88.8745 40.7505C84.5282 39.6635 80.6699 37.155 77.9128 33.6237C75.1558 30.0923 73.6581 25.7408 73.658 21.2606V16.0236C75.1713 16.0236 76.6227 15.4224 77.6929 14.3523C78.763 13.2822 79.3642 11.8308 79.3642 10.3174H98.3848C98.3848 11.8308 98.986 13.2822 100.056 14.3523C101.126 15.4224 102.578 16.0236 104.091 16.0236V21.2606C104.091 25.7408 102.593 30.0923 99.8362 33.6237C97.0791 37.155 93.2208 39.6635 88.8745 40.7505Z" fill="#3D009F"/>
<path d="M88.1822 34.5346C93.7848 34.5346 98.3266 29.9928 98.3266 24.3902C98.3266 18.7876 93.7848 14.2458 88.1822 14.2458C82.5796 14.2458 78.0378 18.7876 78.0378 24.3902C78.0378 29.9928 82.5796 34.5346 88.1822 34.5346Z" fill="white"/>
<path d="M84.1877 24.8872L101.945 12.2144L104.892 16.3406L87.1347 29.016L84.1877 24.8872Z" fill="#BEF4EF"/>
<path d="M111.699 53.4307H147.205V43.2864H111.699M66.0497 53.4307H30.5444V43.2864H66.0497" fill="#70492A"/>
<path d="M40.6886 48.3586H66.0496V43.2864H35.6165C35.6165 44.6316 36.1508 45.9217 37.1021 46.873C38.0533 47.8242 39.3434 48.3586 40.6886 48.3586Z" fill="#845D42"/>
<path d="M45.761 63.5752H55.9054V73.7196H45.761V63.5752ZM45.761 81.3278H55.9054V91.4722H45.761V81.3278ZM121.844 63.5752H131.988V73.7196H121.844V63.5752ZM121.844 81.3278H131.988V91.4722H121.844V81.3278Z" fill="#F2F2F2"/>
<path d="M78.7302 106.689V83.864H99.019V106.689" fill="#E6E6E6"/>
<path d="M83.8022 83.864H99.0188V106.689H83.8022V83.864Z" fill="#F2F2F2"/>
<path d="M66.0496 58.5029H111.699V73.7195H66.0496V58.5029Z" fill="#89F7F1"/>
<path d="M121.844 48.3586H147.205V43.2864H116.771C116.771 44.6316 117.306 45.9217 118.257 46.873C119.208 47.8242 120.498 48.3586 121.844 48.3586Z" fill="#845D42"/>
<path d="M71.1218 58.5029H111.699V73.7195H71.1218V58.5029Z" fill="#BEF4EF"/>
<path d="M5.18359 101.617H25.4723V157.411H5.18359V101.617Z" fill="#603813"/>
<path d="M10.2556 132.05C10.2601 136.544 11.7568 140.91 14.5109 144.462C17.2649 148.014 21.1204 150.55 25.4722 151.674V101.617H10.2556V132.05Z" fill="#70492A"/>
<path d="M25.4722 111.761L35.7332 105.347C42.2865 101.252 49.8589 99.0804 57.5867 99.0806C63.1671 99.0812 68.6891 100.216 73.8177 102.416C80.402 105.237 87.4909 106.69 94.6542 106.689H106.627C108.645 106.689 110.58 107.49 112.007 108.917C113.434 110.344 114.235 112.279 114.235 114.297L145.254 102.377C146.543 101.877 147.912 101.619 149.294 101.617C150.352 101.617 151.399 101.825 152.377 102.23C153.354 102.635 154.242 103.228 154.99 103.976C155.738 104.724 156.331 105.612 156.736 106.589C157.141 107.566 157.349 108.614 157.349 109.671C157.349 111.079 156.98 112.462 156.278 113.683C155.577 114.903 154.568 115.919 153.352 116.628L106.718 143.832C100.015 147.743 92.3943 149.803 84.6341 149.802C79.0586 149.802 73.5344 148.738 68.3575 146.668L54.5687 141.152C52.1004 140.165 49.4666 139.658 46.8083 139.658C41.2666 139.658 35.9519 141.859 32.033 145.778L25.4722 152.338" fill="#E2B2AA"/>
<path d="M154.729 103.76C153.252 102.386 151.311 101.621 149.294 101.617C147.912 101.619 146.543 101.877 145.254 102.377L114.235 114.297C114.234 112.345 113.478 110.468 112.125 109.06C111.973 108.9 111.803 108.758 111.638 108.611C110.259 107.379 108.476 106.695 106.627 106.689H94.6542C87.4944 106.689 80.409 105.235 73.8278 102.415C67.7128 99.7939 61.0541 98.6914 54.4204 99.2019C47.7867 99.7124 41.3751 101.821 35.7332 105.347L25.4722 111.761V144.73L29.4969 140.705C32.3888 137.814 36.0653 135.835 40.071 135.013C44.0768 134.19 48.2357 134.561 52.0327 136.08L65.8214 141.596C72.0102 144.071 78.6821 145.102 85.3295 144.611C91.9769 144.12 98.4247 142.119 104.182 138.76L150.816 111.556C152.032 110.846 153.041 109.831 153.742 108.61C154.443 107.39 154.813 106.007 154.813 104.599C154.799 104.318 154.771 104.038 154.729 103.76Z" fill="#FFE2D5"/>
<path d="M109.163 119.369H76.1941V124.441H109.163C111.854 124.441 114.434 123.373 116.336 121.47C118.239 119.568 119.308 116.987 119.308 114.297V112.347L114.235 114.297C114.235 115.642 113.701 116.932 112.75 117.884C111.799 118.835 110.509 119.369 109.163 119.369Z" fill="#E2B2AA"/>
</svg>
