<svg width="163" height="163" viewBox="0 0 163 163" fill="none" xmlns="http://www.w3.org/2000/svg">
<g clip-path="url(#clip0_549_374)">
<path d="M153.918 162.483H1.88792C0.952733 162.483 0.320295 161.529 0.683273 160.667C13.3523 130.522 43.1552 109.353 77.9038 109.353C112.652 109.353 142.455 130.522 155.125 160.667C155.486 161.529 154.853 162.483 153.918 162.483H153.918Z" fill="#8CBAFA"/>
<path d="M155.124 160.667C142.455 130.522 112.652 109.354 77.9037 109.354C76.2035 109.354 74.5154 109.405 72.8413 109.506C105.402 111.448 132.951 131.996 145 160.667C145.363 161.529 144.729 162.483 143.795 162.483H153.918C154.853 162.483 155.486 161.529 155.124 160.667Z" fill="#5692D8"/>
<path d="M110.156 142.231H144.424C143.134 140.548 141.782 138.914 140.368 137.332H108.626C106.423 130.711 103.875 124.822 101.031 119.824C99.1087 116.449 97.0776 113.536 94.9564 111.093C92.1148 110.506 89.2447 110.067 86.3575 109.777C92.849 114.35 98.8151 124.015 103.444 137.332H52.3631C56.9918 124.014 62.958 114.35 69.4494 109.777C66.5623 110.068 63.6922 110.507 60.8505 111.094C58.7293 113.536 56.697 116.449 54.7765 119.824C51.9307 124.822 49.3835 130.711 47.1793 137.332H15.4386C14.0254 138.914 12.6726 140.548 11.3831 142.231H45.6513C43.8311 148.461 42.3005 155.252 41.0896 162.483H46.0587C47.3169 155.16 48.908 148.367 50.7705 142.231H105.035C106.899 148.367 108.489 155.16 109.747 162.483H114.716C113.505 155.252 111.975 148.461 110.156 142.231Z" fill="#E9E9EA"/>
<path d="M142.445 139.747C142.439 139.738 142.43 139.73 142.424 139.721C141.753 138.913 141.068 138.116 140.369 137.332H130.245C131.657 138.914 133.009 140.548 134.298 142.231H144.424C144.085 141.787 143.74 141.347 143.391 140.911C143.079 140.52 142.764 140.132 142.445 139.747ZM94.9563 111.094C94.2744 110.952 93.5894 110.821 92.9021 110.696C92.8625 110.689 92.8241 110.682 92.7848 110.675C91.3862 110.424 89.9814 110.209 88.5717 110.03C88.54 110.026 88.5083 110.022 88.4766 110.019C87.7719 109.93 87.0659 109.849 86.3564 109.777C87.3075 110.447 88.2461 111.23 89.1725 112.113C92.1537 112.899 95.0889 113.851 97.9645 114.964C96.9836 113.565 95.9806 112.274 94.9566 111.094H94.9563Z" fill="#C5C4CC"/>
<path d="M124.489 46.76C124.489 21.1528 103.829 0.3711 78.2691 0.174236C52.9263 -0.0204087 31.9094 20.3292 31.3289 45.6666C30.8632 66.021 43.4559 83.4937 61.3125 90.3019C62.7688 90.8566 63.9167 92.0096 64.5026 93.4536L74.0795 117.104C75.4702 120.539 80.3357 120.539 81.7274 117.104L91.3059 93.4536C91.893 92.001 93.0532 90.8519 94.5156 90.2933C112.041 83.6028 124.489 66.6363 124.489 46.76Z" fill="#5200D9"/>
<path d="M78.2688 0.174004C76.892 0.164177 75.5272 0.217435 74.1774 0.324901C98.1378 2.25075 116.983 22.303 116.983 46.7598C116.983 66.6364 104.533 83.6025 87.0091 90.2931C85.5451 90.8516 84.3861 92.0008 83.7977 93.4521L74.2208 117.103C74.1986 117.157 74.1736 117.208 74.1501 117.26C75.6249 120.536 80.3579 120.485 81.7274 117.103L91.3046 93.4521C91.893 92.0008 93.052 90.8516 94.5159 90.2931C112.04 83.6025 124.489 66.6361 124.489 46.7598C124.489 21.1526 103.829 0.370868 78.2688 0.174004Z" fill="#3D009F"/>
<path d="M55.4568 30.4348V71.3109C55.4569 71.8879 55.6861 72.4413 56.0941 72.8493C56.5021 73.2574 57.0554 73.4867 57.6324 73.4869H98.1738C98.4595 73.4869 98.7425 73.4307 99.0065 73.3213C99.2705 73.212 99.5104 73.0517 99.7125 72.8496C99.9146 72.6476 100.075 72.4077 100.184 72.1437C100.294 71.8796 100.35 71.5967 100.35 71.3109V30.4351L55.4568 30.4348Z" fill="#E9E9EA"/>
<path d="M86.391 30.4348V37.2807C86.391 41.969 90.1916 45.7693 94.8786 45.7693C99.5669 45.7693 103.367 41.969 103.367 37.2807V30.4348H86.391ZM52.4387 30.4348V37.2807C52.4387 41.969 56.2391 45.7693 60.9273 45.7693C65.6144 45.7693 69.415 41.969 69.415 37.2807V30.4348H52.4387Z" fill="#7FAB38"/>
<path d="M69.4146 30.4348V37.2807C69.4146 41.969 73.2152 45.7693 77.9035 45.7693C82.5905 45.7693 86.3908 41.969 86.3908 37.2807V30.4348H69.4146Z" fill="#C5C4CC"/>
<path d="M59.0402 18.4653L52.4387 30.435H103.367L96.7658 18.4653C96.5041 17.9909 96.12 17.5953 95.6535 17.3198C95.187 17.0444 94.6551 16.899 94.1134 16.8989H61.6923C61.1505 16.899 60.6187 17.0444 60.1521 17.3198C59.6856 17.5953 59.3015 17.9909 59.0398 18.4653H59.0402Z" fill="#C9EA6E"/>
<path d="M86.391 30.4347H69.4163L71.9026 16.8977H83.9046L86.391 30.4347Z" fill="#F0F0F2"/>
<path d="M70.3967 53.7637V73.4869H85.4091V53.7637C85.4091 53.4378 85.1454 53.1741 84.8207 53.1741H70.9851C70.9077 53.1742 70.8312 53.1895 70.7597 53.2192C70.6883 53.2488 70.6234 53.2923 70.5688 53.347C70.5142 53.4018 70.4708 53.4668 70.4413 53.5383C70.4118 53.6098 70.3966 53.6864 70.3967 53.7637Z" fill="#8CBAFA"/>
<path d="M136.477 70.3067C125.847 70.2253 117.031 78.7595 116.788 89.387C116.593 97.9241 121.874 105.253 129.363 108.108C129.975 108.341 130.457 108.825 130.702 109.43L134.719 119.35C135.303 120.791 137.343 120.791 137.927 119.35L141.944 109.43C142.065 109.129 142.247 108.856 142.479 108.628C142.71 108.4 142.986 108.222 143.29 108.105C150.64 105.298 155.862 98.1828 155.862 89.8454C155.862 79.1051 147.197 70.3885 136.477 70.3067ZM136.323 95.518C133.194 95.518 130.656 92.9807 130.656 89.8514C130.656 86.7222 133.194 84.1861 136.323 84.1861C139.451 84.1861 141.988 86.7222 141.988 89.8511C141.988 92.9807 139.452 95.518 136.323 95.518H136.323ZM20.7525 104.366C10.1237 104.284 1.30795 112.82 1.06385 123.447C0.868254 131.984 6.15093 139.313 13.6403 142.168C14.2509 142.401 14.7324 142.884 14.9778 143.491L18.995 153.41C19.5792 154.851 21.6189 154.851 22.2031 153.41L26.2206 143.489C26.3421 143.188 26.5243 142.915 26.7558 142.687C26.9874 142.459 27.2634 142.281 27.5666 142.164C34.9172 139.358 40.138 132.242 40.138 123.905C40.138 113.165 31.4738 104.449 20.7525 104.366ZM20.5987 129.577C17.4698 129.577 14.9337 127.041 14.9337 123.912C14.9337 120.783 17.4708 118.245 20.5987 118.245C23.7279 118.245 26.2653 120.782 26.2653 123.911C26.2653 127.041 23.7279 129.577 20.5987 129.577V129.577Z" fill="#5200D9"/>
</g>
<defs>
<clipPath id="clip0_549_374">
<rect width="162.31" height="162.31" fill="white" transform="translate(0.578857 0.172852)"/>
</clipPath>
</defs>
</svg>
