<svg width="40" height="39" viewBox="0 0 40 39" fill="none" xmlns="http://www.w3.org/2000/svg">
<ellipse cx="20.3994" cy="19.5" rx="19.5" ry="19.5" fill="#303383" fill-opacity="0.31"/>
<path d="M24.7444 18.3802C25.8971 17.4783 26.7385 16.2415 27.1515 14.8418C27.5645 13.4421 27.5286 11.9493 27.0487 10.5709C26.5688 9.19247 25.6689 7.99709 24.4741 7.15104C23.2793 6.30499 21.849 5.85034 20.3823 5.85034C18.9156 5.85034 17.4853 6.30499 16.2905 7.15104C15.0957 7.99709 14.1957 9.19247 13.7159 10.5709C13.236 11.9493 13.2 13.4421 13.613 14.8418C14.026 16.2415 14.8674 17.4783 16.0201 18.3802C14.0449 19.1673 12.3215 20.4726 11.0335 22.1571C9.7456 23.8416 8.94144 25.8421 8.7068 27.9453C8.68981 28.0989 8.70341 28.2543 8.74681 28.4026C8.7902 28.5509 8.86255 28.6893 8.95972 28.8098C9.15597 29.0533 9.44141 29.2092 9.75324 29.2433C10.0651 29.2774 10.3778 29.1869 10.6225 28.9917C10.8673 28.7966 11.0241 28.5127 11.0584 28.2026C11.3165 25.9168 12.4125 23.8057 14.1368 22.2727C15.8611 20.7397 18.0929 19.8922 20.4058 19.8922C22.7187 19.8922 24.9505 20.7397 26.6748 22.2727C28.3991 23.8057 29.495 25.9168 29.7532 28.2026C29.7852 28.4899 29.923 28.7553 30.1402 28.9475C30.3573 29.1396 30.6383 29.245 30.929 29.2433H31.0583C31.3666 29.208 31.6483 29.053 31.8421 28.8121C32.0359 28.5712 32.1261 28.2638 32.093 27.957C31.8573 25.8478 31.0488 23.8421 29.7542 22.1551C28.4597 20.468 26.7278 19.1631 24.7444 18.3802ZM20.3823 17.55C19.4521 17.55 18.5428 17.2757 17.7694 16.7618C16.9959 16.2478 16.3931 15.5173 16.0372 14.6626C15.6812 13.808 15.5881 12.8675 15.7695 11.9602C15.951 11.0529 16.3989 10.2195 17.0567 9.56537C17.7144 8.91124 18.5524 8.46577 19.4647 8.28529C20.3771 8.10482 21.3227 8.19744 22.1821 8.55146C23.0415 8.90547 23.776 9.50497 24.2928 10.2742C24.8096 11.0433 25.0854 11.9476 25.0854 12.8727C25.0854 14.1132 24.5899 15.3029 23.7079 16.1801C22.8259 17.0572 21.6296 17.55 20.3823 17.55Z" fill="black"/>
</svg>
