<svg width="37" height="41" viewBox="0 0 37 41" fill="none" xmlns="http://www.w3.org/2000/svg">
<path d="M18.2011 32.7619C18.561 32.7619 18.9129 32.6552 19.2123 32.4552C19.5116 32.2552 19.7449 31.9709 19.8826 31.6383C20.0204 31.3057 20.0564 30.9398 19.9862 30.5867C19.916 30.2337 19.7426 29.9093 19.4881 29.6548C19.2335 29.4002 18.9092 29.2269 18.5561 29.1567C18.2031 29.0864 17.8371 29.1225 17.5045 29.2602C17.172 29.398 16.8877 29.6313 16.6877 29.9306C16.4877 30.2299 16.381 30.5818 16.381 30.9418C16.381 31.4245 16.5727 31.8875 16.9141 32.2288C17.2554 32.5701 17.7183 32.7619 18.2011 32.7619ZM27.3016 32.7619C27.6616 32.7619 28.0135 32.6552 28.3128 32.4552C28.6121 32.2552 28.8454 31.9709 28.9831 31.6383C29.1209 31.3057 29.1569 30.9398 29.0867 30.5867C29.0165 30.2337 28.8431 29.9093 28.5886 29.6548C28.3341 29.4002 28.0097 29.2269 27.6567 29.1567C27.3036 29.0864 26.9376 29.1225 26.6051 29.2602C26.2725 29.398 25.9882 29.6313 25.7882 29.9306C25.5882 30.2299 25.4815 30.5818 25.4815 30.9418C25.4815 31.4245 25.6732 31.8875 26.0146 32.2288C26.3559 32.5701 26.8189 32.7619 27.3016 32.7619ZM27.3016 25.4815C27.6616 25.4815 28.0135 25.3747 28.3128 25.1747C28.6121 24.9747 28.8454 24.6905 28.9831 24.3579C29.1209 24.0253 29.1569 23.6594 29.0867 23.3063C29.0165 22.9532 28.8431 22.6289 28.5886 22.3744C28.3341 22.1198 28.0097 21.9465 27.6567 21.8762C27.3036 21.806 26.9376 21.8421 26.6051 21.9798C26.2725 22.1176 25.9882 22.3509 25.7882 22.6502C25.5882 22.9495 25.4815 23.3014 25.4815 23.6614C25.4815 24.1441 25.6732 24.6071 26.0146 24.9484C26.3559 25.2897 26.8189 25.4815 27.3016 25.4815ZM18.2011 25.4815C18.561 25.4815 18.9129 25.3747 19.2123 25.1747C19.5116 24.9747 19.7449 24.6905 19.8826 24.3579C20.0204 24.0253 20.0564 23.6594 19.9862 23.3063C19.916 22.9532 19.7426 22.6289 19.4881 22.3744C19.2335 22.1198 18.9092 21.9465 18.5561 21.8762C18.2031 21.806 17.8371 21.8421 17.5045 21.9798C17.172 22.1176 16.8877 22.3509 16.6877 22.6502C16.4877 22.9495 16.381 23.3014 16.381 23.6614C16.381 24.1441 16.5727 24.6071 16.9141 24.9484C17.2554 25.2897 17.7183 25.4815 18.2011 25.4815ZM30.9418 3.64021H29.1217V1.82011C29.1217 1.33738 28.9299 0.874433 28.5886 0.533097C28.2473 0.191761 27.7843 0 27.3016 0C26.8189 0 26.3559 0.191761 26.0146 0.533097C25.6732 0.874433 25.4815 1.33738 25.4815 1.82011V3.64021H10.9206V1.82011C10.9206 1.33738 10.7289 0.874433 10.3875 0.533097C10.0462 0.191761 9.58325 0 9.10053 0C8.61781 0 8.15486 0.191761 7.81352 0.533097C7.47218 0.874433 7.28042 1.33738 7.28042 1.82011V3.64021H5.46032C4.01215 3.64021 2.6233 4.21549 1.59929 5.2395C0.575282 6.26351 0 7.65236 0 9.10053V34.582C0 36.0302 0.575282 37.419 1.59929 38.443C2.6233 39.4671 4.01215 40.0423 5.46032 40.0423H30.9418C32.39 40.0423 33.7788 39.4671 34.8028 38.443C35.8268 37.419 36.4021 36.0302 36.4021 34.582V9.10053C36.4021 7.65236 35.8268 6.26351 34.8028 5.2395C33.7788 4.21549 32.39 3.64021 30.9418 3.64021ZM32.7619 34.582C32.7619 35.0647 32.5701 35.5277 32.2288 35.869C31.8875 36.2104 31.4245 36.4021 30.9418 36.4021H5.46032C4.9776 36.4021 4.51465 36.2104 4.17331 35.869C3.83197 35.5277 3.64021 35.0647 3.64021 34.582V18.2011H32.7619V34.582ZM32.7619 14.5608H3.64021V9.10053C3.64021 8.61781 3.83197 8.15486 4.17331 7.81352C4.51465 7.47219 4.9776 7.28042 5.46032 7.28042H7.28042V9.10053C7.28042 9.58325 7.47218 10.0462 7.81352 10.3875C8.15486 10.7289 8.61781 10.9206 9.10053 10.9206C9.58325 10.9206 10.0462 10.7289 10.3875 10.3875C10.7289 10.0462 10.9206 9.58325 10.9206 9.10053V7.28042H25.4815V9.10053C25.4815 9.58325 25.6732 10.0462 26.0146 10.3875C26.3559 10.7289 26.8189 10.9206 27.3016 10.9206C27.7843 10.9206 28.2473 10.7289 28.5886 10.3875C28.9299 10.0462 29.1217 9.58325 29.1217 9.10053V7.28042H30.9418C31.4245 7.28042 31.8875 7.47219 32.2288 7.81352C32.5701 8.15486 32.7619 8.61781 32.7619 9.10053V14.5608ZM9.10053 25.4815C9.46051 25.4815 9.81241 25.3747 10.1117 25.1747C10.411 24.9747 10.6443 24.6905 10.7821 24.3579C10.9198 24.0253 10.9559 23.6594 10.8857 23.3063C10.8154 22.9532 10.6421 22.6289 10.3875 22.3744C10.133 22.1198 9.80868 21.9465 9.45561 21.8762C9.10255 21.806 8.73659 21.8421 8.40401 21.9798C8.07142 22.1176 7.78716 22.3509 7.58717 22.6502C7.38717 22.9495 7.28042 23.3014 7.28042 23.6614C7.28042 24.1441 7.47218 24.6071 7.81352 24.9484C8.15486 25.2897 8.61781 25.4815 9.10053 25.4815ZM9.10053 32.7619C9.46051 32.7619 9.81241 32.6552 10.1117 32.4552C10.411 32.2552 10.6443 31.9709 10.7821 31.6383C10.9198 31.3057 10.9559 30.9398 10.8857 30.5867C10.8154 30.2337 10.6421 29.9093 10.3875 29.6548C10.133 29.4002 9.80868 29.2269 9.45561 29.1567C9.10255 29.0864 8.73659 29.1225 8.40401 29.2602C8.07142 29.398 7.78716 29.6313 7.58717 29.9306C7.38717 30.2299 7.28042 30.5818 7.28042 30.9418C7.28042 31.4245 7.47218 31.8875 7.81352 32.2288C8.15486 32.5701 8.61781 32.7619 9.10053 32.7619Z" fill="#303383"/>
</svg>
