<svg width="63" height="12" viewBox="0 0 63 12" fill="none" xmlns="http://www.w3.org/2000/svg">
<path d="M22.3287 8.34405H17.9123C17.9946 8.83524 18.1781 9.22695 18.4754 9.50674C18.7728 9.79275 19.1398 9.93576 19.5827 9.93576C19.8864 9.93576 20.1585 9.87358 20.3926 9.74923C20.6267 9.62488 20.8481 9.43213 21.0506 9.16477L21.9491 10.4891C21.3986 11.3472 20.5951 11.77 19.5384 11.77C18.8804 11.77 18.2983 11.5959 17.7921 11.2477C17.2859 10.8995 16.8936 10.4145 16.6216 9.79275C16.3495 9.17099 16.2103 8.4684 16.2103 7.68498C16.2103 6.90778 16.3432 6.20519 16.6152 5.58343C16.8873 4.96166 17.2606 4.47047 17.7352 4.12229C18.2097 3.7741 18.7412 3.60001 19.3233 3.60001C19.8927 3.60001 20.4116 3.76788 20.8735 4.10363C21.3353 4.43938 21.7023 4.91814 21.9617 5.5399C22.2275 6.16166 22.3603 6.88912 22.3603 7.71607C22.3603 7.75337 22.3477 7.95855 22.3287 8.34405ZM18.3679 5.78861C18.1085 6.08083 17.9503 6.48498 17.8933 6.99482H20.7722C20.7153 6.4912 20.5571 6.09327 20.2977 5.79482C20.0383 5.49638 19.7156 5.34716 19.3423 5.34716C18.95 5.34716 18.6273 5.49638 18.3679 5.78861Z" fill="#2B3187"/>
<path d="M28.7951 4.49535C29.238 5.08602 29.4658 5.96271 29.4658 7.11918V11.658H27.7701V7.47359C27.7701 6.84561 27.6689 6.37307 27.4664 6.06841C27.2639 5.75753 26.9729 5.60209 26.5869 5.60209C26.1567 5.60209 25.8213 5.7824 25.5682 6.14302C25.3151 6.50364 25.1886 7.03214 25.1886 7.74095V11.6643H23.4929V3.72437H25.1127V4.65701C25.3341 4.32126 25.6125 4.06634 25.9479 3.87981C26.2832 3.6995 26.6439 3.60623 27.0425 3.60623C27.7638 3.60623 28.3459 3.90468 28.7951 4.49535Z" fill="#2B3187"/>
<path d="M31.0919 11.4466C30.6616 11.1855 30.3073 10.8124 30.0352 10.3337L31.0096 8.74197C31.4209 9.50052 31.8954 9.8798 32.4206 9.8798C33.1356 9.8798 33.4962 9.30778 33.4962 8.16995V3.25804H30.8261V1.33679H35.2425V8.03316C35.2425 9.30156 35.0084 10.2529 34.5465 10.887C34.0847 11.5212 33.4013 11.8383 32.5029 11.8383C31.9967 11.8383 31.5221 11.7078 31.0919 11.4466Z" fill="#2B3187"/>
<path d="M41.304 4.4829C41.7912 5.06735 42.0316 5.95026 42.0316 7.1316V11.658H40.4498V10.6694C40.1335 11.4093 39.5387 11.7762 38.6719 11.7762C38.2227 11.7762 37.8367 11.6705 37.5077 11.4653C37.1787 11.2601 36.9256 10.9741 36.7547 10.6073C36.5839 10.2466 36.4953 9.83005 36.4953 9.36995C36.4953 8.63005 36.6978 8.05181 37.1091 7.62901C37.5203 7.20622 38.1467 6.99482 39.0009 6.99482H40.3486C40.3486 6.49119 40.2347 6.1057 40.0133 5.83834C39.7918 5.57098 39.4501 5.43419 39.0009 5.43419C38.6909 5.43419 38.3808 5.50259 38.0835 5.63316C37.7861 5.76373 37.5267 5.94404 37.3179 6.17409L36.6978 4.56995C37.0142 4.26528 37.4001 4.02901 37.843 3.86114C38.2859 3.69326 38.7478 3.61243 39.216 3.61243C40.1208 3.60621 40.8168 3.89844 41.304 4.4829ZM39.8614 9.9544C40.0829 9.77409 40.2474 9.50673 40.3359 9.15233V8.34404H39.1717C38.4757 8.34404 38.1277 8.65492 38.1277 9.27046C38.1277 9.56269 38.21 9.79896 38.3808 9.97305C38.5517 10.1471 38.7858 10.228 39.0832 10.228C39.3805 10.228 39.6336 10.1409 39.8614 9.9544Z" fill="#2B3187"/>
<path d="M46.4164 11.2912C45.79 10.8311 45.2965 10.2031 44.9421 9.3886C44.5815 8.58031 44.4043 7.6601 44.4043 6.64041C44.4043 5.62072 44.5815 4.70051 44.9421 3.89222C45.3028 3.08393 45.79 2.44974 46.4164 1.98963C47.0428 1.52953 47.7451 1.30569 48.5297 1.30569C49.1877 1.30569 49.7825 1.46114 50.3139 1.77823C50.8454 2.09533 51.2947 2.543 51.6553 3.13367L50.5291 4.55129C50.0166 3.743 49.3775 3.34507 48.6183 3.34507C48.15 3.34507 47.7261 3.48808 47.3591 3.76787C46.9922 4.04766 46.7011 4.43937 46.4986 4.943C46.2962 5.44663 46.1886 6.01243 46.1886 6.65284C46.1886 7.29326 46.2898 7.85906 46.4986 8.36269C46.7074 8.86632 46.9922 9.25181 47.3591 9.53782C47.7261 9.81761 48.15 9.96062 48.6183 9.96062C49.3775 9.96062 50.0166 9.55025 50.5291 8.73575L51.6553 10.1534C51.2947 10.7503 50.8454 11.2104 50.3076 11.5275C49.7698 11.8446 49.175 12 48.517 12C47.7451 11.9813 47.0428 11.7513 46.4164 11.2912Z" fill="#EC1E2D"/>
<path d="M57.1157 4.63213C57.6029 5.21659 57.8433 6.09949 57.8433 7.28084V11.8073H56.2615V10.8124C55.9452 11.5523 55.3504 11.9192 54.4836 11.9192C54.0343 11.9192 53.6484 11.8135 53.3194 11.6083C52.9904 11.4031 52.7373 11.1171 52.5664 10.7503C52.3956 10.3896 52.307 9.97306 52.307 9.51296C52.307 8.77306 52.5095 8.19483 52.9208 7.77203C53.332 7.34923 53.9584 7.13783 54.8126 7.13783H56.1603C56.1603 6.6342 56.0464 6.24871 55.8249 5.98135C55.6035 5.714 55.2618 5.57721 54.8126 5.57721C54.5026 5.57721 54.1925 5.6456 53.8951 5.77617C53.5978 5.90674 53.3383 6.08705 53.1296 6.31711L52.5158 4.71296C52.8322 4.4083 53.2181 4.17203 53.661 4.00415C54.1039 3.83628 54.5658 3.75545 55.034 3.75545C55.9388 3.75545 56.6348 4.04768 57.1157 4.63213ZM55.6731 10.0974C55.8945 9.91711 56.059 9.64975 56.1476 9.29534V8.48705H54.9834C54.2874 8.48705 53.9394 8.79793 53.9394 9.41348C53.9394 9.70571 54.0217 9.94198 54.1925 10.1161C54.3634 10.2902 54.5975 10.371 54.8948 10.371C55.1922 10.371 55.4516 10.2839 55.6731 10.0974Z" fill="#EC1E2D"/>
<path d="M61.8105 4.04768C62.1521 3.84871 62.5508 3.75545 63 3.75545V5.87565C62.8102 5.857 62.6836 5.84457 62.6204 5.84457C62.1332 5.84457 61.7535 6.0311 61.4815 6.39793C61.2094 6.76477 61.0702 7.31814 61.0702 8.05804V11.801H59.3745V3.86736H60.9943V4.91192C61.1967 4.53265 61.4688 4.24664 61.8105 4.04768Z" fill="#EC1E2D"/>
<path d="M13.091 0H15.9635L12.3001 5.52746L15.9635 11.2974H13.3504L9.66798 6.08083V4.77513L13.091 0Z" fill="#EC1E2D"/>
<path d="M9.66797 0.466323V10.8684C9.66797 11.1047 9.47183 11.2974 9.23139 11.2974H4.75806C4.75806 11.2974 7.47876 10.9057 8.56071 7.43005C8.605 7.28083 8.49744 7.13161 8.33926 7.12539L5.90961 7.0943C5.40343 8.19482 4.34046 8.94715 3.11299 8.94715C1.39831 8.95337 0 7.46736 0 5.6456C0 3.81762 1.39831 2.33783 3.11931 2.33783C4.34679 2.33783 5.40976 3.09638 5.92227 4.19068L8.34558 4.22176C8.49744 4.22176 8.61766 4.07876 8.57337 3.92954C8.3266 3.09016 7.40916 0.696375 4.77071 0.0373077H9.23772C9.47816 0.0373077 9.66797 0.230054 9.66797 0.466323Z" fill="#2B3187"/>
</svg>
