<svg width="40" height="40" viewBox="0 0 40 40" fill="none" xmlns="http://www.w3.org/2000/svg">
<path d="M40 20C40 31.0457 31.0457 40 20 40C8.95431 40 0 31.0457 0 20C0 8.95431 8.95431 0 20 0C31.0457 0 40 8.95431 40 20Z" fill="#303383"/>
<path d="M30.0721 9.36029C29.7558 9.09711 29.374 8.92462 28.9674 8.86119C28.5608 8.79775 28.1446 8.84575 27.7631 9.00006L7.85099 17.0393C7.42516 17.2145 7.06268 17.5151 6.81166 17.9011C6.56064 18.2872 6.43295 18.7404 6.44555 19.2007C6.45815 19.661 6.61043 20.1066 6.88219 20.4783C7.15395 20.85 7.53232 21.1303 7.9671 21.282L11.9949 22.6828L14.2399 30.1068C14.2704 30.206 14.3147 30.3004 14.3714 30.3873C14.38 30.4006 14.3922 30.4105 14.4013 30.4235C14.4669 30.5149 14.5461 30.5958 14.6362 30.6632C14.6619 30.6827 14.6864 30.701 14.7138 30.7184C14.8193 30.7884 14.9361 30.8396 15.0591 30.8696L15.0722 30.8707L15.0797 30.8739C15.1536 30.889 15.2289 30.8966 15.3043 30.8967C15.3116 30.8967 15.318 30.8933 15.3252 30.8931C15.439 30.8911 15.5519 30.8715 15.6597 30.835C15.6848 30.8265 15.7063 30.8122 15.7307 30.8018C15.8111 30.7685 15.8873 30.7258 15.9577 30.6746C16.014 30.6271 16.0704 30.5796 16.1268 30.5321L19.1292 27.2173L23.6073 30.6862C24.0015 30.9932 24.4868 31.16 24.9864 31.1604C25.5099 31.1597 26.0173 30.9791 26.4235 30.6488C26.8297 30.3185 27.1099 29.8586 27.2173 29.3461L30.8425 11.55C30.9247 11.1494 30.8964 10.7341 30.7607 10.3484C30.625 9.9627 30.387 9.62115 30.0721 9.36029ZM15.7449 23.0365C15.5908 23.19 15.4855 23.3855 15.4421 23.5986L15.0982 25.2697L14.2271 22.3885L18.744 20.0363L15.7449 23.0365ZM24.9691 28.9295L19.6772 24.8301C19.4558 24.659 19.178 24.5776 18.8993 24.6022C18.6206 24.6267 18.3614 24.7553 18.1733 24.9625L17.2117 26.0238L17.5515 24.3722L25.4215 16.5022C25.6094 16.3146 25.7238 16.0659 25.7441 15.8012C25.7645 15.5365 25.6893 15.2733 25.5323 15.0592C25.3753 14.8451 25.1468 14.6944 24.8882 14.6342C24.6296 14.5741 24.3581 14.6085 24.1227 14.7314L12.8279 20.6121L8.68976 19.0977L28.6659 11.1061L24.9691 28.9295Z" fill="white"/>
</svg>
