<svg width="40" height="40" viewBox="0 0 40 40" fill="none" xmlns="http://www.w3.org/2000/svg">
<path d="M26 18H22V10C22 9.46956 21.7893 8.96086 21.4142 8.58578C21.0391 8.21071 20.5304 8 20 8C19.4696 8 18.9609 8.21071 18.5858 8.58578C18.2107 8.96086 18 9.46956 18 10V20C18 20.5304 18.2107 21.0391 18.5858 21.4142C18.9609 21.7893 19.4696 22 20 22H26C26.5304 22 27.0391 21.7893 27.4142 21.4142C27.7893 21.0391 28 20.5304 28 20C28 19.4696 27.7893 18.9609 27.4142 18.5858C27.0391 18.2107 26.5304 18 26 18ZM20 0C16.0444 0 12.1776 1.17298 8.8886 3.37061C5.59962 5.56823 3.03617 8.69181 1.52242 12.3463C0.00866568 16.0008 -0.387401 20.0222 0.384303 23.9018C1.15601 27.7814 3.06082 31.3451 5.85787 34.1421C8.65492 36.9392 12.2186 38.844 16.0982 39.6157C19.9778 40.3874 23.9992 39.9913 27.6537 38.4776C31.3082 36.9638 34.4318 34.4004 36.6294 31.1114C38.827 27.8224 40 23.9556 40 20C39.9941 14.6975 37.8851 9.61382 34.1356 5.86438C30.3862 2.11493 25.3025 0.00589716 20 0ZM20 36C16.8355 36 13.7421 35.0616 11.1109 33.3035C8.4797 31.5454 6.42894 29.0465 5.21794 26.1229C4.00693 23.1993 3.69008 19.9822 4.30744 16.8785C4.92481 13.7749 6.44866 10.9239 8.6863 8.68629C10.9239 6.44865 13.7749 4.9248 16.8786 4.30743C19.9823 3.69007 23.1993 4.00692 26.1229 5.21793C29.0466 6.42893 31.5454 8.47969 33.3035 11.1109C35.0616 13.7421 36 16.8355 36 20C35.9951 24.242 34.3079 28.3088 31.3083 31.3083C28.3088 34.3079 24.242 35.9951 20 36Z" fill="#303383"/>
</svg>
