<svg width="210" height="38" viewBox="0 0 210 38" fill="none" xmlns="http://www.w3.org/2000/svg">
<path d="M14.272 37.48C12.064 37.48 10.176 37.208 8.608 36.664C7.04 36.12 5.728 35.416 4.672 34.552C3.648 33.688 2.832 32.776 2.224 31.816C1.616 30.824 1.152 29.896 0.832 29.032C0.544 28.168 0.352 27.464 0.256 26.92C0.16 26.376 0.112 26.104 0.112 26.104H6.736C6.736 26.104 6.768 26.296 6.832 26.68C6.928 27.064 7.12 27.56 7.408 28.168C7.696 28.744 8.112 29.32 8.656 29.896C9.232 30.472 9.984 30.968 10.912 31.384C11.872 31.768 13.056 31.96 14.464 31.96C16.64 31.96 18.288 31.48 19.408 30.52C20.56 29.528 21.136 28.312 21.136 26.872C21.136 25.656 20.704 24.696 19.84 23.992C18.976 23.256 17.696 22.712 16 22.36L11.296 21.352C9.472 20.968 7.76 20.392 6.16 19.624C4.592 18.856 3.328 17.816 2.368 16.504C1.408 15.192 0.928 13.512 0.928 11.464C0.928 9.32 1.456 7.464 2.512 5.896C3.6 4.328 5.088 3.128 6.976 2.296C8.864 1.432 11.072 0.999997 13.6 0.999997C16 0.999997 17.984 1.352 19.552 2.056C21.12 2.76 22.368 3.624 23.296 4.648C24.256 5.672 24.96 6.696 25.408 7.72C25.856 8.744 26.144 9.608 26.272 10.312C26.432 11.016 26.512 11.368 26.512 11.368H20.128C20.128 11.368 20.064 11.128 19.936 10.648C19.808 10.136 19.52 9.56 19.072 8.92C18.624 8.28 17.952 7.72 17.056 7.24C16.16 6.728 14.96 6.472 13.456 6.472C11.312 6.472 9.744 6.952 8.752 7.912C7.792 8.872 7.312 9.912 7.312 11.032C7.312 12.184 7.76 13.08 8.656 13.72C9.552 14.36 10.752 14.856 12.256 15.208L17.296 16.264C19.184 16.68 20.912 17.304 22.48 18.136C24.048 18.968 25.296 20.072 26.224 21.448C27.152 22.792 27.616 24.472 27.616 26.488C27.616 28.536 27.104 30.392 26.08 32.056C25.056 33.72 23.552 35.048 21.568 36.04C19.584 37 17.152 37.48 14.272 37.48ZM32.956 37V0.519998H39.34V15.208H39.628C39.884 14.76 40.284 14.216 40.828 13.576C41.372 12.904 42.124 12.328 43.084 11.848C44.044 11.336 45.26 11.08 46.732 11.08C48.684 11.08 50.284 11.528 51.532 12.424C52.812 13.288 53.756 14.44 54.364 15.88C55.004 17.32 55.324 18.872 55.324 20.536V37H48.94V21.4C48.94 20.024 48.556 18.84 47.788 17.848C47.02 16.856 45.868 16.36 44.332 16.36C43.148 16.36 42.188 16.664 41.452 17.272C40.716 17.848 40.172 18.6 39.82 19.528C39.5 20.456 39.34 21.432 39.34 22.456V37H32.956ZM65.0973 7.624C63.9773 7.624 63.0493 7.256 62.3133 6.52C61.6093 5.784 61.2573 4.904 61.2573 3.88C61.2573 2.856 61.6093 1.976 62.3133 1.24C63.0493 0.503999 63.9773 0.136 65.0973 0.136C66.2173 0.136 67.1453 0.503999 67.8813 1.24C68.6173 1.976 68.9853 2.856 68.9853 3.88C68.9853 4.904 68.6173 5.784 67.8813 6.52C67.1453 7.256 66.2173 7.624 65.0973 7.624ZM61.9293 37V11.56H68.3133V37H61.9293ZM77.9208 37V16.696H73.8408V11.56H77.9208V9.208C77.9208 8.248 78.0488 7.24 78.3047 6.184C78.5608 5.096 78.9928 4.088 79.6008 3.16C80.2408 2.232 81.1208 1.48 82.2408 0.903998C83.3928 0.327998 84.8328 0.0399981 86.5608 0.0399981C87.5208 0.0399981 88.3048 0.119998 88.9128 0.279998C89.5528 0.407998 89.8728 0.471998 89.8728 0.471998V5.128C89.8728 5.128 89.6648 5.096 89.2488 5.032C88.8328 4.936 88.3848 4.888 87.9048 4.888C86.5288 4.888 85.5848 5.288 85.0728 6.088C84.5608 6.888 84.3047 7.928 84.3047 9.208V11.56H89.7288V16.696H84.3047V37H77.9208ZM105.589 37.48C103.861 37.48 102.437 37.224 101.317 36.712C100.197 36.2 99.3166 35.528 98.6766 34.696C98.0686 33.864 97.6366 32.952 97.3806 31.96C97.1246 30.968 96.9966 29.992 96.9966 29.032V16.696H92.6286V11.56H96.9966V5.224H103.381V11.56H109.093V16.696H103.381V28.888C103.381 31.16 104.661 32.296 107.221 32.296C107.829 32.296 108.389 32.264 108.901 32.2C109.445 32.104 109.717 32.056 109.717 32.056V37.048C109.717 37.048 109.301 37.112 108.469 37.24C107.669 37.4 106.709 37.48 105.589 37.48Z" fill="#00AFF5"/>
<path d="M124.865 37V7.144H113.921V1.48H142.337V7.144H131.393V37H124.865ZM153.481 11.08C155.113 11.08 156.457 11.352 157.513 11.896C158.569 12.408 159.401 12.984 160.009 13.624C160.617 14.232 161.033 14.728 161.257 15.112H161.545V11.56H167.929V37H161.545V33.448H161.257C161.033 33.832 160.617 34.344 160.009 34.984C159.401 35.624 158.569 36.2 157.513 36.712C156.457 37.224 155.113 37.48 153.481 37.48C151.593 37.48 149.945 37.112 148.537 36.376C147.129 35.608 145.945 34.6 144.985 33.352C144.057 32.072 143.353 30.648 142.873 29.08C142.425 27.512 142.201 25.912 142.201 24.28C142.201 22.648 142.425 21.048 142.873 19.48C143.353 17.912 144.057 16.504 144.985 15.256C145.945 13.976 147.129 12.968 148.537 12.232C149.945 11.464 151.593 11.08 153.481 11.08ZM155.161 16.312C153.721 16.312 152.505 16.712 151.513 17.512C150.553 18.28 149.833 19.272 149.353 20.488C148.873 21.704 148.633 22.968 148.633 24.28C148.633 25.592 148.873 26.856 149.353 28.072C149.833 29.288 150.553 30.296 151.513 31.096C152.505 31.864 153.721 32.248 155.161 32.248C156.601 32.248 157.801 31.864 158.761 31.096C159.721 30.296 160.441 29.288 160.921 28.072C161.401 26.856 161.641 25.592 161.641 24.28C161.641 22.968 161.401 21.704 160.921 20.488C160.441 19.272 159.721 18.28 158.761 17.512C157.801 16.712 156.601 16.312 155.161 16.312ZM172.89 37L180.81 24.328L172.842 11.56H179.562L185.082 20.488L190.698 11.56H197.37L189.21 24.328L197.37 37H190.65L185.082 28.072L179.562 37H172.89ZM206.097 7.624C204.977 7.624 204.049 7.256 203.313 6.52C202.609 5.784 202.257 4.904 202.257 3.88C202.257 2.856 202.609 1.976 203.313 1.24C204.049 0.503999 204.977 0.136 206.097 0.136C207.217 0.136 208.145 0.503999 208.881 1.24C209.617 1.976 209.985 2.856 209.985 3.88C209.985 4.904 209.617 5.784 208.881 6.52C208.145 7.256 207.217 7.624 206.097 7.624ZM202.929 37V11.56H209.313V37H202.929Z" fill="black"/>
</svg>
